<svg width="118" height="24" viewBox="0 0 118 24" fill="none" xmlns="http://www.w3.org/2000/svg">
<path d="M113.743 3.48922C113.545 3.4939 113.357 3.57675 113.22 3.71969L106 10.9394L98.7804 3.71969C98.7105 3.6477 98.6268 3.59047 98.5344 3.55138C98.442 3.5123 98.3427 3.49216 98.2423 3.49215C98.093 3.49219 97.9472 3.53676 97.8234 3.62015C97.6996 3.70355 97.6035 3.82198 97.5474 3.9603C97.4913 4.09861 97.4778 4.25052 97.5085 4.39659C97.5392 4.54266 97.6128 4.67624 97.7198 4.78024L104.94 12L97.7198 19.2197C97.6479 19.2888 97.5904 19.3716 97.5508 19.4632C97.5112 19.5548 97.4903 19.6533 97.4893 19.7531C97.4883 19.8529 97.5072 19.9519 97.5449 20.0443C97.5826 20.1366 97.6384 20.2206 97.7089 20.2911C97.7795 20.3617 97.8634 20.4175 97.9558 20.4552C98.0482 20.4929 98.1472 20.5118 98.247 20.5108C98.3467 20.5098 98.4453 20.4889 98.5369 20.4493C98.6285 20.4097 98.7113 20.3522 98.7804 20.2802L106 13.0605L113.22 20.2802C113.289 20.3522 113.372 20.4097 113.463 20.4493C113.555 20.4889 113.653 20.5098 113.753 20.5108C113.853 20.5118 113.952 20.4929 114.044 20.4552C114.137 20.4175 114.221 20.3617 114.291 20.2911C114.362 20.2206 114.418 20.1366 114.455 20.0443C114.493 19.9519 114.512 19.8529 114.511 19.7531C114.51 19.6533 114.489 19.5548 114.449 19.4632C114.41 19.3716 114.352 19.2888 114.28 19.2197L107.061 12L114.28 4.78024C114.389 4.67556 114.464 4.54037 114.495 4.39239C114.526 4.24441 114.512 4.09054 114.454 3.95097C114.395 3.8114 114.297 3.69263 114.17 3.61023C114.043 3.52783 113.894 3.48565 113.743 3.48922Z" fill="white"/>
</svg>