<svg width="118" height="24" viewBox="0 0 118 24" fill="none" xmlns="http://www.w3.org/2000/svg">
<path d="M1.74994 11.25C1.65056 11.2485 1.55188 11.2669 1.45966 11.304C1.36743 11.341 1.28349 11.396 1.21271 11.4658C1.14194 11.5356 1.08573 11.6188 1.04737 11.7105C1.00901 11.8022 0.989258 11.9006 0.989258 12C0.989258 12.0993 1.00901 12.1977 1.04737 12.2894C1.08573 12.3811 1.14194 12.4643 1.21271 12.5341C1.28349 12.6039 1.36743 12.6589 1.45966 12.6959C1.55188 12.733 1.65056 12.7514 1.74994 12.75H22.2499C22.3493 12.7514 22.448 12.733 22.5402 12.6959C22.6324 12.6589 22.7164 12.6039 22.7872 12.5341C22.8579 12.4643 22.9141 12.3811 22.9525 12.2894C22.9909 12.1977 23.0106 12.0993 23.0106 12C23.0106 11.9006 22.9909 11.8022 22.9525 11.7105C22.9141 11.6188 22.8579 11.5356 22.7872 11.4658C22.7164 11.396 22.6324 11.341 22.5402 11.304C22.448 11.2669 22.3493 11.2485 22.2499 11.25H1.74994Z" fill="white"/>
</svg>